<?xml version="1.0" encoding="utf-8"?>
<!-- Generator: Adobe Illustrator 26.0.0, SVG Export Plug-In . SVG Version: 6.00 Build 0)  -->
<svg version="1.1" id="Layer_1" xmlns="http://www.w3.org/2000/svg" xmlns:xlink="http://www.w3.org/1999/xlink" x="0px" y="0px"
	 viewBox="0 0 607.5 106.9" style="enable-background:new 0 0 607.5 106.9;" xml:space="preserve">
<style type="text/css">
	.st0{fill:#04526A;}
	.st1{fill:#E97769;}
	.st2{fill:#FACABC;}
	.st3{fill:#F69780;}
	.st4{fill:#FEF5F0;}
</style>
<rect class="st4" width="607.5" height="106.9"/>
<g>
	<g>
		<path class="st1" d="M41.2,68.3c2.5,3.3,3.8,6.4,4.6,8.6c0,0.1,0,0.1,0.1,0.2c0-0.1,0-0.1,0.1-0.2c0.8-2.2,2.1-5.3,4.6-8.6
			c2.1-2.7,4-4.5,6.7-6.7c1.8-1.5,6.6-4.8,11.3-8.1c-4.7-3.3-9.5-6.6-11.3-8.1c-2.8-2.3-4.7-4-6.7-6.7c-2.5-3.3-3.8-6.4-4.6-8.6
			c0-0.1,0-0.1-0.1-0.2c0,0.1,0,0.1-0.1,0.2c-0.8,2.2-2.1,5.3-4.6,8.6c-2.1,2.7-4,4.5-6.7,6.7c-1.8,1.5-6.6,4.8-11.3,8.1
			c4.7,3.3,9.5,6.6,11.3,8.1C37.2,63.8,39.1,65.5,41.2,68.3z"/>
		<path class="st2" d="M0.5,78.3c0,0,0.4-1.6,1-3.2c0.9-2.3,4-8.5,11-14c1.7-1.4,6.2-4.5,10.7-7.6c-4.5-3.2-9-6.3-10.7-7.6
			c-7-5.6-10.1-11.7-11-14c-0.6-1.6-1-3.2-1-3.2c-0.3-1.2-0.4-2.3-0.5-3C0,25,0,24.4,0,23.8v59.3c0-0.6,0-1.1,0.1-1.7
			C0.1,80.6,0.3,79.5,0.5,78.3z"/>
		<path class="st2" d="M91.2,28.6c0,0-0.4,1.6-1,3.2c-0.9,2.3-4,8.5-11,14c-1.7,1.4-6.2,4.5-10.7,7.6c4.5,3.2,9,6.3,10.7,7.6
			c7,5.6,10.1,11.7,11,14c0.6,1.6,1,3.2,1,3.2c0.3,1.2,0.4,2.3,0.5,3c0.1,0.6,0.1,1.2,0.1,1.7V23.8c0,0.6,0,1.1-0.1,1.7
			C91.5,26.4,91.4,27.4,91.2,28.6z"/>
		<path class="st3" d="M75.1,1c-9-3.1-23.5,0.5-29.3,15.6C40.1,1.5,25.6-2.1,16.6,1C7.8,4-0.1,12.9,0,23.8c0,0.6,0,1.1,0.1,1.7
			c0.1,0.8,0.2,1.8,0.5,3c0,0,0.4,1.6,1,3.2c0.9,2.3,4,8.5,11,14c1.7,1.4,6.2,4.5,10.7,7.6c4.7-3.3,9.5-6.6,11.3-8.1
			c2.8-2.3,4.7-4,6.7-6.7c2.5-3.3,3.8-6.4,4.6-8.6c0-0.1,0-0.1,0.1-0.2c0,0.1,0,0.1,0.1,0.2c0.8,2.2,2.1,5.3,4.6,8.6
			c2.1,2.7,4,4.5,6.7,6.7c1.8,1.5,6.6,4.8,11.3,8.1c4.5-3.2,9-6.3,10.7-7.6c7-5.6,10.1-11.7,11-14c0.6-1.6,1-3.2,1-3.2
			c0.3-1.2,0.4-2.3,0.5-3c0.1-0.6,0.1-1.2,0.1-1.7C91.8,12.9,83.9,4,75.1,1z"/>
		<path class="st3" d="M91.2,78.3c0,0-0.4-1.6-1-3.2c-0.9-2.3-4-8.5-11-14c-1.7-1.4-6.2-4.5-10.7-7.6c-4.7,3.3-9.5,6.6-11.3,8.1
			c-2.8,2.3-4.7,4-6.7,6.7c-2.5,3.3-3.8,6.4-4.6,8.6c0,0.1,0,0.1-0.1,0.2c0-0.1,0-0.1-0.1-0.2c-0.8-2.2-2.1-5.3-4.6-8.6
			c-2.1-2.7-4-4.5-6.7-6.7c-1.8-1.5-6.6-4.8-11.3-8.1c-4.5,3.2-9,6.3-10.7,7.6c-7,5.6-10.1,11.7-11,14c-0.6,1.6-1,3.2-1,3.2
			c-0.3,1.2-0.4,2.3-0.5,3C0,81.9,0,82.5,0,83.1c-0.1,10.9,7.8,19.8,16.6,22.8c9,3.1,23.5-0.5,29.3-15.6
			c5.7,15.1,20.3,18.7,29.3,15.6c8.8-3,16.7-11.9,16.6-22.8c0-0.6,0-1.1-0.1-1.7C91.5,80.6,91.4,79.5,91.2,78.3z"/>
	</g>
	<g>
		<path class="st0" d="M164.2,53.4c0,7.6,0.3,22,4.5,25.1c1.1,0.9,1.1,2.7-1.2,2.7h-22.7c-1.1,0-1.5-1.4-0.4-2.3
			c3.8-2.8,4.6-5.2,4.6-9.3V56h-17.1c0.1,7.8,0.9,19.7,4.5,22.5c1.2,0.9,1.2,2.7-1.1,2.7h-22.7c-1.1,0-1.5-1.4-0.4-2.3
			c3.8-2.8,4.5-5.2,4.5-9.3V37.2c0-3.9-0.7-6.4-4.5-9.3c-1.1-0.9-0.7-2.2,0.4-2.2h22.7c2.3,0,2.3,1.7,1.1,2.6
			c-3.9,3.1-4.5,16.9-4.5,24.6H149V37.2c0-3.9-0.8-6.4-4.6-9.3c-1.1-0.9-0.7-2.2,0.4-2.2h22.7c2.3,0,2.3,1.7,1.2,2.6
			C164.5,31.5,164.2,45.8,164.2,53.4z"/>
		<path class="st0" d="M211.2,70.3c-3.6,6.4-10.9,10.9-19.3,10.9c-12.1,0-21.8-9-21.8-20.2s9.6-20.2,22.7-20.2
			c8.5,0,17.7,5.8,17.7,13c0,7.1-7,12.9-15.5,12.9c-2.8,0-5.3-0.7-7.6-1.6c1.1,3.6,3.5,6.6,7.8,8c4,1.1,10.7-0.3,13.7-4.4
			C210,67.3,211.9,69.1,211.2,70.3z M186.9,54.3c0,5.8,2.7,9.4,5.3,9.4c2.9,0,5-4.5,5-9.8c0-5.5-2.1-9.9-5-9.9
			C190.5,43.9,186.9,47.3,186.9,54.3z"/>
		<path class="st0" d="M257.2,47.7c2.1,10.4-16.2,13.7-15,5.2c0.4-2.4,1.4-4.6-0.5-4.6c-2.6,0-6.3,4-8.4,8
			c-0.8,12.1,0.8,19.8,3.8,22.1c1.2,0.9,1.2,2.7-1.1,2.7h-21.3c-1.1,0-1.5-1.4-0.4-2.3c3.8-2.8,4.5-5.2,4.5-9.3v-9.2
			c0-4-0.7-6.4-4.5-9.4c-1.1-0.9-0.7-2.2,0.4-2.2c10.5,0,14.8-7.1,19-8c2.3-0.4,1.2,1.3,1,2.7l-0.9,7.1c2.5-3.7,7.5-9.9,13-9.9
			C251,40.9,256.3,43.2,257.2,47.7z"/>
		<path class="st0" d="M312,53.4c0,7.6,0.3,22,4.5,25.1c1.1,0.9,1.1,2.7-1.2,2.7h-22.7c-1.1,0-1.5-1.4-0.4-2.3
			c3.8-2.8,4.6-5.2,4.6-9.3V56h-17.1c0.1,7.8,0.9,19.7,4.5,22.5c1.2,0.9,1.2,2.7-1.1,2.7h-22.7c-1.1,0-1.5-1.4-0.4-2.3
			c3.8-2.8,4.5-5.2,4.5-9.3V37.2c0-3.9-0.7-6.4-4.5-9.3c-1.1-0.9-0.7-2.2,0.4-2.2H283c2.3,0,2.3,1.7,1.1,2.6
			c-3.9,3.1-4.5,16.9-4.5,24.6h17.1V37.2c0-3.9-0.8-6.4-4.6-9.3c-1.1-0.9-0.7-2.2,0.4-2.2h22.7c2.3,0,2.3,1.7,1.2,2.6
			C312.4,31.5,312,45.8,312,53.4z"/>
		<path class="st0" d="M359,70.3c-3.6,6.4-10.9,10.9-19.3,10.9c-12.1,0-21.8-9-21.8-20.2s9.6-20.2,22.7-20.2c8.5,0,17.7,5.8,17.7,13
			c0,7.1-7,12.9-15.5,12.9c-2.8,0-5.3-0.7-7.6-1.6c1.1,3.6,3.5,6.6,7.8,8c4,1.1,10.7-0.3,13.7-4.4C357.8,67.3,359.7,69.1,359,70.3z
			 M334.7,54.3c0,5.8,2.7,9.4,5.3,9.4c2.9,0,5-4.5,5-9.8c0-5.5-2.1-9.9-5-9.9C338.3,43.9,334.7,47.3,334.7,54.3z"/>
		<path class="st0" d="M404.7,81.2h-11.1c-5.9,0-8.2-5.2-8.2-5.2c-2.4,3.2-6.3,5.2-10.7,5.2c-7.3,0-13.3-5.8-13.3-12.9
			s6-12.9,13.3-12.9c4.4,0,8.3,2.1,10.7,5.2v-3.3c0-6.3-2.4-13.5-6.3-13.5c-1.6,0-1.6,2.6-0.3,5.4c2.3,5.3-14.1,7.5-14.1,1.2
			c0-4.7,5.5-9.7,15.5-9.7c11.7,0,20.5,8.1,20.5,19.8v8.9c0,4,0.7,6.4,4.5,9.3C406.2,79.8,405.9,81.2,404.7,81.2z M385,68.3
			c0-3.8-2.4-7-5.5-7c-2.9,0-5.3,3.2-5.3,7c0,3.8,2.4,7,5.3,7C382.6,75.3,385,72.2,385,68.3z"/>
		<path class="st0" d="M451.8,47.7c2.1,10.4-16.2,13.7-15,5.2c0.4-2.4,1.4-4.6-0.5-4.6c-2.6,0-6.3,4-8.4,8
			c-0.8,12.1,0.8,19.8,3.8,22.1c1.2,0.9,1.2,2.7-1.1,2.7h-21.3c-1.1,0-1.5-1.4-0.4-2.3c3.8-2.8,4.5-5.2,4.5-9.3v-9.2
			c0-4-0.7-6.4-4.5-9.4c-1.1-0.9-0.7-2.2,0.4-2.2c10.5,0,14.8-7.1,19-8c2.3-0.4,1.2,1.3,1,2.7l-0.9,7.1c2.5-3.7,7.5-9.9,13-9.9
			C445.6,40.9,450.9,43.2,451.8,47.7z"/>
		<path class="st0" d="M482.5,48.3c0,1.4-0.4,2.6-1.9,2.6h-5.3c-0.7,14.1,1.3,25.3,4.3,27.6c1.1,0.9,1.2,2.7-1.2,2.7h-22
			c-1.4,0-1.4-1.7-0.3-2.7c3.6-3.4,3.5-11.6,3.5-16.2c0-2.8,0.1-7.7-1.4-11.3h-2.4c-1.4,0-1.9-1.2-1.9-2.6c0-1.4,0.4-2.6,1.9-2.6
			h0.7c10.5,0,12.8-11.6,17.9-13.4c2.2-0.9,3.2,0.9,2.9,2.3c-0.7,3.8-1.2,7.5-1.5,11.1h5C482.1,45.7,482.5,46.9,482.5,48.3z"/>
		<path class="st0" d="M561.7,60.5c-1.3,11.9-12.6,20.7-25.3,20.7c-16.1,0-29.3-12.4-29.3-27.8c0-15.3,13.2-27.7,29.3-27.7
			c14.3,0,28.9,12.2,21,23.7c-5.7,8.1-25.1,12-21.3-1.6c3.9-14.3-0.2-18.7-6.3-17c-6.4,1.9-8.7,13.5-4.7,25.9
			C531.5,76,555,73,558.4,60.1C559.1,57.2,562,58.2,561.7,60.5z"/>
		<path class="st0" d="M607.5,61c0,11.1-9.7,20.2-21.7,20.2c-12.1,0-21.8-9-21.8-20.2s9.7-20.2,21.8-20.2
			C597.8,40.9,607.5,49.9,607.5,61z M592,61c0-9.5-2.8-17.1-6.2-17.1c-3.5,0-6.3,7.6-6.3,17.1c0,9.4,2.8,17.1,6.3,17.1
			C589.1,78.2,592,70.4,592,61z"/>
		<path class="st0" d="M501.4,67.7c-1.6-0.6-4.2,0.1-5.2,2.8c-1-2.7-3.6-3.3-5.2-2.8c-1.6,0.6-3.1,2.3-2.9,4.4c0,0.1,0,0.3,0.1,0.5
			c0,0,0.1,0.3,0.2,0.6c0.2,0.4,0.7,1.5,2,2.5c0.6,0.5,1.3,0.9,1.9,1.4c0,0,0,0,0,0c0.6,0.5,1.3,0.9,1.9,1.4
			c0.5,0.4,0.8,0.7,1.2,1.2c0.4,0.6,0.7,1.1,0.8,1.5c0,0,0,0,0,0c0,0,0,0,0,0c0.1-0.4,0.4-0.9,0.8-1.5c0.4-0.5,0.7-0.8,1.2-1.2
			c0.6-0.5,1.3-0.9,1.9-1.4c0,0,0,0,0,0c0.7-0.4,1.3-0.9,1.9-1.4c1.2-1,1.8-2.1,2-2.5c0.1-0.3,0.2-0.6,0.2-0.6
			c0-0.2,0.1-0.4,0.1-0.5C504.6,69.9,503.1,68.2,501.4,67.7z"/>
	</g>
</g>
</svg>
